<?xml version="1.0" encoding="utf-8"?>
<!-- Generator: Adobe Illustrator 19.1.0, SVG Export Plug-In . SVG Version: 6.00 Build 0)  -->
<!DOCTYPE svg PUBLIC "-//W3C//DTD SVG 1.1//EN" "http://www.w3.org/Graphics/SVG/1.1/DTD/svg11.dtd">
<svg version="1.1" id="Layer_1" xmlns="http://www.w3.org/2000/svg" xmlns:xlink="http://www.w3.org/1999/xlink" x="0px" y="0px"
	 viewBox="0 0 284 85.9" enable-background="new 0 0 284 85.9" xml:space="preserve">
<g>
	<g>
		<path fill="#FFFFFF" d="M22.1,48l-8.2-18.1h-6V48H0V0h16.6c8.4,0,14.1,6,14.1,14.8c0,8.4-4.7,12.5-9,13.7L31,48H22.1z M22.5,14.9
			c0-4.8-2.7-7.9-7.1-7.9H7.9v15.8h7.5C19.7,22.8,22.5,19.7,22.5,14.9z"/>
		<path fill="#FFFFFF" d="M52.9,48V0h26.4v7H60.8v13h17.9v7H60.8v14h18.4v7H52.9z"/>
		<path fill="#FFFFFF" d="M101.1,48V0h7.9v41h16.8v7H101.1z"/>
		<path fill="#FFFFFF" d="M172,48l-2.7-9.5h-15.8l-2.7,9.5h-8.6l14.4-48h9.5l14.4,48H172z M161.4,8.5l-6.3,23h12.7L161.4,8.5z"/>
		<path fill="#FFFFFF" d="M224.6,48l-10-18.2l-10,18.2h-9.1l14.3-24.6L196.2,0h9.2l9.1,17.3L223.7,0h9.2l-13.5,23.4L233.8,48H224.6z
			"/>
		<path fill="#FFFFFF" d="M275,48l-8.2-18.1h-6V48h-7.9V0h16.6c8.4,0,14.1,6,14.1,14.8c0,8.4-4.7,12.5-9,13.7L284,48H275z
			 M275.4,14.9c0-4.8-2.7-7.9-7.1-7.9h-7.5v15.8h7.5C272.7,22.8,275.4,19.7,275.4,14.9z"/>
	</g>
	<rect x="0" y="78" fill="#FFFFFF" width="284" height="7.9"/>
</g>
</svg>
